# AST/ASF file generated using VICON BodyLanguage
# -----------------------------------------------
:version 1.10
:name VICON
:units
  mass 1.0
  length 0.45
  angle deg
:documentation
   .ast/.asf automatically generated from VICON data using
   VICON BodyBuilder and BodyLanguage model FoxedUp or BRILLIANT.MOD
:root
   order TX TY TZ RX RY RZ
   axis XYZ
   position 0 0 0  
   orientation 0 0 0 
:bonedata
  begin
     id 1 
     name lhipjoint
     direction 0.671379 -0.66392 0.329334 
     length 2.38647 
     axis 0 0 0  XYZ
  end
  begin
     id 2 
     name lfemur
     direction 0.34202 -0.939693 0  
     length 6.48179  
     axis 0 0 20  XYZ
    dof rx ry rz
    limits (-160.0 20.0)
           (-70.0 70.0)
           (-60.0 70.0)
  end
  begin
     id 3 
     name ltibia
     direction 0.34202 -0.939693 0   
     length 6.86524   
     axis 0 0 20   XYZ
    dof rx
    limits (-10.0 170.0)
  end
  begin
     id 4 
     name lfoot
     direction 0.204886 -0.562919 0.800715   
     length 1.73031   
     axis -90 7.62852e-016 20   XYZ
    dof rx rz
    limits (-45.0 90.0)
           (-70.0 20.0)
  end
  begin
     id 5 
     name ltoes
     direction 1.53548e-011 -4.21841e-011 1   
     length 0.828161   
     axis -90 7.62852e-016 20   XYZ
    dof rx
    limits (-90.0 20.0)
  end
  begin
     id 6 
     name rhipjoint
     direction -0.662732 -0.670855 0.332775   
     length 2.3618  
     axis 0 0 0  XYZ 
  end
  begin
     id 7 
     name rfemur
     direction -0.34202 -0.939693 0   
     length 6.3025   
     axis 0 0 -20   XYZ
    dof rx ry rz
    limits (-160.0 20.0)
           (-70.0 70.0)
           (-70.0 60.0)
  end
  begin
     id 8 
     name rtibia
     direction -0.34202 -0.939693 0   
     length 6.8732   
     axis 0 0 -20   XYZ
    dof rx
    limits (-10.0 170.0)
 end
 begin
     id 9 
     name rfoot
     direction -0.173856 -0.477665 0.861168   
     length 1.54784  
     axis -90 -7.62852e-016 -20   XYZ
    dof rx rz
    limits (-45.0 90.0)
           (-20.0 70.0)
  end
  begin
     id 10 
     name rtoes
     direction -1.53562e-011 -4.21802e-011 1   
     length 0.759618   
     axis -90 -7.62852e-016 -20   XYZ
    dof rx
    limits (-90.0 20.0)
  end
  begin
     id 11 
     name lowerback
     direction -0.0278357 0.999497 -0.0151789   
     length 1.97203   
     axis 0 0 0   XYZ
    dof rx ry rz
    limits (-20.0 45.0)
           (-30.0 30.0)
           (-30.0 30.0)
  end
  begin
     id 12 
     name upperback
     direction -0.00360622 0.997542 0.0699804   
     length 1.94709   
     axis 0 0 0   XYZ
    dof rx ry rz
    limits (-20.0 45.0)
           (-30.0 30.0)
           (-30.0 30.0)
  end
  begin
     id 13 
     name thorax
     direction 0.00907706 0.997048 0.0762461   
     length 1.95722   
     axis 0 0 0   XYZ
    dof rx ry rz
    limits (-20.0 45.0)
           (-30.0 30.0)
           (-30.0 30.0)
  end
  begin
     id 14 
     name lowerneck
     direction -0.0481835 0.99872 -0.0153927   
     length 1.63078   
     axis 0 0 0   XYZ
    dof rx ry rz
    limits (-20.0 45.0)
           (-30.0 30.0)
           (-30.0 30.0)
  end
  begin
     id 15 
     name upperneck
     direction 0.0859716 0.979226 -0.183644   
     length 1.62591   
     axis 0 0 0   XYZ
    dof rx ry rz
    limits (-20.0 45.0)
           (-30.0 30.0)
           (-30.0 30.0)
  end
  begin
     id 16
     name head
     direction 0.0324821 0.997629 -0.0606773  
     length 1.64811  
     axis 0 0 0   XYZ
    dof rx ry rz
    limits (-20.0 45.0)
           (-30.0 30.0)
           (-30.0 30.0)
  end
  begin
     id 17 
     name lclavicle
     direction 0.939609 0.311019 0.142835  
     length 3.70647  
     axis 0 0 0   XYZ
    dof ry rz
    limits (-20.0 10.0)
           (0.0 20.0)
  end
  begin
     id 18 
     name lhumerus
     direction 1 -4.48963e-011 -1.59838e-027   
     length 4.59207   
     axis 180 -30 -90   XYZ
    dof rx ry rz
    limits (-60.0 90.0)
           (-90.0 90.0)
           (-90.0 90.0)
  end
  begin
     id 19
     name lradius
     direction 1 -4.48957e-011 -1.3483e-026   
     length 2.98109   
     axis 180 -30 -90   XYZ
    dof rx
    limits (-10.0 170.0)
  end
  begin
     id 20
     name lwrist
     direction 1 -4.48954e-011 -3.11579e-026   
     length 1.49055   
     axis 2.00652e-014 90 90   XYZ
    dof ry
    limits (-180.0 0.0)
 end
  begin
     id 21 
     name lhand
     direction 1 -4.4911e-011 -6.23158e-026   
     length 0.480203   
     axis 3.97628e-014 90 90   XYZ
    dof rx rz
    limits (-90.0 90.0)
           (-45.0 45.0)
  end
  begin
     id 22 
     name lfingers
     direction 1 -4.48893e-011 -1.24632e-025   
     length 0.387152   
     axis 7.95256e-014 90 90   XYZ
    dof rx
    limits (0.0 90.0)
  end
  begin
     id 23
     name lthumb
     direction 0.707107 -6.35013e-011 0.707107   
     length 0.555875   
     axis -90 45 2.85299e-015   XYZ
    dof rx rz
    limits (-45.0 45.0)
           (-45.0 45.0)
  end
  begin
     id 24 
     name rclavicle
     direction -0.950396 0.30392 0.0661859   
     length 3.70894  
     axis 0 0 0   XYZ 
    dof ry rz
    limits (-10.0 20.0)
           (-20.0 0.0)
  end
  begin
     id 25 
     name rhumerus
     direction -1 -4.48957e-011 -2.96677e-027  
     length 4.76508   
     axis 180 30 90   XYZ
    dof rx ry rz
    limits (-90.0 60.0)
           (-90.0 90.0)
           (-90.0 90.0)
  end
  begin
     id 26 
     name rradius
     direction -1 -4.48974e-011 -1.44501e-026   
     length 2.78902   
     axis 180 30 90   XYZ
    dof rx
    limits (-10.0 170.0)
  end
  begin
     id 27 
     name rwrist
     direction -1 -4.48978e-011 -3.11579e-026   
     length 1.39451   
     axis 2.00652e-014 -90 -90   XYZ
    dof ry
    limits (-180.0 0.0)
  end
  begin
     id 28
     name rhand
     direction -1 -4.48956e-011 -6.23158e-026   
     length 0.721303   
     axis 3.97628e-014 -90 -90   XYZ
    dof rx rz
    limits (-90.0 90.0)
           (-45.0 45.0)
  end
  begin
     id 29
     name rfingers
     direction -1 -4.4899e-011 -1.24632e-025   
     length 0.581533   
     axis 7.95256e-014 -90 -90   XYZ
    dof rx
    limits (0.0 90.0)
  end
  begin
     id 30
     name rthumb
     direction -0.707107 -6.34911e-011 0.707107   
     length 0.834968   
     axis -90 -45 -2.85299e-015   XYZ
    dof rx rz
    limits (-45.0 45.0)
           (-45.0 45.0)
  end
:hierarchy
  begin
    root lhipjoint rhipjoint lowerback
    lhipjoint lfemur
    lfemur ltibia
    ltibia lfoot
    lfoot ltoes
    rhipjoint rfemur
    rfemur rtibia
    rtibia rfoot
    rfoot rtoes
    lowerback upperback
    upperback thorax
    thorax lowerneck lclavicle rclavicle
    lowerneck upperneck
    upperneck head
    lclavicle lhumerus
    lhumerus lradius
    lradius lwrist
    lwrist lhand lthumb
    lhand lfingers
    rclavicle rhumerus
    rhumerus rradius
    rradius rwrist
    rwrist rhand rthumb
    rhand rfingers
  end

#!OML:ASF I:\salsa\salsa 7_09\Patient 1\Session 1\dancerfemale.ASF
:FULLY-SPECIFIED
:DEGREES
427
root -9.88949 15.7741 -6.0324 186.52 -224.144 180.537
lowerback 5.08911 5.95156 6.43403
upperback -8.9082 8.78787 -1.29684
thorax -11.3128 3.66766 -6.18881
lowerneck 3.05545 -4.69244 -7.97558
upperneck 15.5018 -6.47942 3.71418
head 4.54063 -3.35289 2.25307
rclavicle 2.85256e-014 -6.36111e-015
rhumerus -23.1328 7.66005 -89.1715
rradius 86.9918
rwrist -10.6354
rhand -19.4539 62.0172
rfingers 7.12502
rthumb 6.86697 32.1486
lclavicle 2.85256e-014 -6.36111e-015
lhumerus -19.4093 -1.4818 57.5393
lradius 113.837
lwrist 38.0304
lhand 28.7645 44.1132
lfingers 7.12502
lthumb 52.5928 63.8601
rfemur -12.5316 -18.7418 19.644
rtibia 61.0202
rfoot 19.0493 -2.68145
rtoes -8.74253
lfemur -29.3802 7.35813 -31.978
ltibia 43.9015
lfoot -29.0751 12.057
ltoes 27.1605
428
root -9.72911 15.7104 -5.90701 187.707 -228.073 183.784
lowerback 5.88396 5.8247 4.85348
upperback -8.33809 8.4302 -1.50093
thorax -11.3618 3.61831 -5.57405
lowerneck 2.80049 -5.37417 -9.21782
upperneck 15.7736 -7.36873 3.82262
head 4.77929 -3.84758 2.43606
rclavicle 1.53064e-014 1.35174e-014
rhumerus -20.8108 7.1158 -85.872
rradius 86.4982
rwrist -9.36853
rhand -19.1152 62.8419
rfingers 7.12502
rthumb 7.19399 32.9842
lclavicle 1.53064e-014 1.35174e-014
lhumerus -18.1615 -3.23134 58.4718
lradius 113.474
lwrist 37.9012
lhand 29.8087 44.3072
lfingers 7.12502
lthumb 53.5349 63.455
rfemur -15.6321 -20.2989 16.6185
rtibia 66.4731
rfoot 17.161 -1.98666
rtoes -7.54247
lfemur -26.7644 6.14335 -34.2104
ltibia 43.6295
lfoot -28.6913 10.0027
ltoes 26.2135
429
root -9.56733 15.6703 -5.76714 190.038 -232.349 187.692
lowerback 6.26202 5.60021 3.16707
upperback -7.88769 7.8976 -1.75751
thorax -11.3143 3.49501 -4.88019
lowerneck 3.19702 -6.03996 -9.81735
upperneck 15.3304 -8.22199 3.35409
head 4.65021 -4.31786 2.35925
rclavicle -2.6339e-014 -1.23246e-014
rhumerus -18.3478 6.55556 -82.5452
rradius 86.2087
rwrist -8.64696
rhand -18.0628 63.5396
rfingers 7.12502
rthumb 8.20976 33.7192
lclavicle -2.6339e-014 -1.23246e-014
lhumerus -16.8861 -5.24514 59.0659
lradius 113.201
lwrist 38.1917
lhand 30.1582 44.2283
lfingers 7.12502
lthumb 53.8492 63.1678
rfemur -18.8031 -21.5769 13.6601
rtibia 70.6034
rfoot 14.8531 -1.5621
rtoes -10.2547
lfemur -24.4101 5.16622 -36.3999
ltibia 43.3121
lfoot -28.1101 7.40765
ltoes 25.7458
430
root -9.41921 15.6697 -5.62154 190.312 -237.337 187.476
lowerback 5.7473 5.24259 4.2882
upperback -7.89779 7.56458 -1.42173
thorax -10.9558 3.28128 -5.02133
lowerneck 3.61953 -6.75376 -10.5314
upperneck 14.9063 -9.19122 3.20145
head 4.55094 -4.83437 2.3939
rclavicle 2.94201e-014 1.47101e-014
rhumerus -16.0293 5.8735 -79.193
rradius 86.0213
rwrist -8.00596
rhand -16.8548 63.871
rfingers 7.12502
rthumb 9.37546 34.0995
lclavicle 2.94201e-014 1.47101e-014
lhumerus -15.75 -7.4386 59.373
lradius 113.097
lwrist 38.836
lhand 30.0394 44.2954
lfingers 7.12502
lthumb 53.7424 63.3062
rfemur -22.8737 -21.5765 14.775
rtibia 73.0258
rfoot 11.6635 -0.263323
rtoes -16.9632
lfemur -23.5606 4.26817 -35.4772
ltibia 43.2628
lfoot -27.0902 4.36908
ltoes 25.4325
431
root -9.27238 15.6758 -5.46981 190.457 -242.427 187.256
lowerback 5.2581 4.83944 5.39631
upperback -7.83517 7.15399 -1.05617
thorax -10.5593 3.03641 -5.12217
lowerneck 4.20256 -7.33869 -11.6679
upperneck 13.9658 -10.1092 3.78342
head 4.32457 -5.31286 2.73409
rclavicle -1.21259e-014 -7.95139e-015
rhumerus -13.4953 5.26706 -75.6629
rradius 85.9254
rwrist -6.90818
rhand -15.8653 63.1809
rfingers 7.12502
rthumb 10.3301 33.4546
lclavicle -1.21259e-014 -7.95139e-015
lhumerus -14.7242 -9.32779 59.4972
lradius 113.078
lwrist 39.3446
lhand 30.7024 44.6315
lfingers 7.12502
lthumb 54.3373 63.2389
rfemur -26.4726 -20.6481 15.6841
rtibia 74.2033
rfoot 9.51088 -0.186055
rtoes -20.7124
lfemur -22.7362 3.59647 -34.4483
ltibia 43.3235
lfoot -25.9344 1.38315
ltoes 23.9964
432
root -9.10046 15.6782 -5.30362 192.358 -247.457 189.443
lowerback 4.78383 4.47143 5.46984
upperback -7.50576 6.63451 -0.880822
thorax -9.9775 2.82303 -4.8416
lowerneck 3.342 -8.21403 -12.0624
upperneck 14.7463 -11.0573 2.81956
head 4.76221 -5.83615 2.39269
rclavicle 4.37326e-015 -8.74653e-015
rhumerus -10.8439 4.43211 -71.8445
rradius 85.9829
rwrist -5.31266
rhand -15.2513 62.0183
rfingers 7.12502
rthumb 10.9223 32.3224
lclavicle 4.37326e-015 -8.74653e-015
lhumerus -13.5159 -10.9379 59.8307
lradius 113.107
lwrist 39.8705
lhand 30.9512 45.3251
lfingers 7.12502
lthumb 54.5601 63.7773
rfemur -28.8318 -19.4658 14.7764
rtibia 74.3148
rfoot 6.61388 0.149603
rtoes -28.7682
lfemur -21.3454 3.00796 -34.3377
ltibia 43.5055
lfoot -25.0944 -1.54075
ltoes 22.2714
433
root -8.93112 15.6923 -5.12721 195.557 -252.737 192.816
lowerback 4.33791 4.09018 5.49618
upperback -7.31541 6.1018 -0.746664
thorax -9.57172 2.59344 -4.60076
lowerneck 3.73301 -8.9286 -12.4273
upperneck 13.9689 -12.0429 2.62609
head 4.54901 -6.33545 2.35981
rclavicle 5.36719e-014 2.22639e-014
rhumerus -8.92451 2.90071 -68.1735
rradius 85.6458
rwrist -3.6692
rhand -14.6059 62.1206
rfingers 7.12502
rthumb 11.5448 32.4586
lclavicle 5.36719e-014 2.22639e-014
lhumerus -12.4167 -12.7297 60.1841
lradius 113.121
lwrist 40.4564
lhand 30.8385 45.8658
lfingers 7.12502
lthumb 54.4592 64.3886
rfemur -30.6296 -18.243 13.6447
rtibia 73.4038
rfoot 3.5536 -0.0887349
rtoes -31.9209
lfemur -20.0924 1.82879 -33.9486
ltibia 43.547
lfoot -24.0623 -4.29083
ltoes 22.3727
434
root -8.76351 15.7225 -4.93878 201.296 -258.324 198.477
lowerback 3.83837 3.65873 5.70574
upperback -7.39816 5.53337 -0.670696
thorax -9.42236 2.31758 -4.53972
lowerneck 4.62273 -9.56309 -12.7983
upperneck 13.136 -13.0214 2.77701
head 4.2608 -6.81776 2.46383
rclavicle 1.74931e-014 -1.90833e-014
rhumerus -7.6019 0.989696 -64.832
rradius 84.9868
rwrist -2.51823
rhand -13.5587 62.7191
rfingers 7.12502
rthumb 12.5546 33.1163
lclavicle 1.74931e-014 -1.90833e-014
lhumerus -11.6432 -14.9606 60.0856
lradius 113.017
lwrist 41.0845
lhand 30.8983 45.614
lfingers 7.12502
lthumb 54.5127 64.0994
rfemur -31.9848 -17.2612 12.5492
rtibia 71.5281
rfoot 1.2783 -0.977535
rtoes -33.361
lfemur -18.9108 -0.0240772 -33.2079
ltibia 43.401
lfoot -22.8569 -6.1383
ltoes 21.5265
435
root -8.57357 15.799 -4.73542 215.686 -263.658 212.79
lowerback 3.20399 3.28427 5.81384
upperback -7.45607 5.02392 -0.575513
thorax -9.16973 2.0844 -4.40224
lowerneck 5.25978 -10.288 -12.9149
upperneck 12.6342 -14.059 2.68759
head 4.0914 -7.32895 2.43958
rclavicle -3.39922e-014 7.95139e-016
rhumerus -6.12487 -0.792969 -61.4096
rradius 84.7548
rwrist -1.92641
rhand -12.5762 62.4159
rfingers 7.12502
rthumb 13.5017 32.8735
lclavicle -3.39922e-014 7.95139e-016
lhumerus -10.8161 -16.8175 60.2059
lradius 113.126
lwrist 41.3482
lhand 31.2702 45.944
lfingers 7.12502
lthumb 54.8451 64.1941
rfemur -32.3829 -16.314 11.3007
rtibia 68.5722
rfoot -0.18117 -2.36691
rtoes -34.2611
lfemur -17.8837 -2.02066 -32.2061
ltibia 43.1088
lfoot -21.4496 -7.48433
ltoes 20.7667
436
root -8.37251 15.8899 -4.53063 279.221 -266.709 276.263
lowerback 2.23886 3.05664 5.46095
upperback -7.24278 4.64741 -0.322006
thorax -8.44847 1.9758 -3.82358
lowerneck 5.71707 -11.1128 -13.173
upperneck 11.8936 -15.231 2.70016
head 3.90687 -7.90571 2.45596
rclavicle -4.21423e-014 -1.59028e-014
rhumerus -4.33879 -2.46019 -57.2564
rradius 84.7984
rwrist -1.68412
rhand -12.2066 61.49
rfingers 7.12502
rthumb 13.8579 31.9717
lclavicle -4.21423e-014 -1.59028e-014
lhumerus -9.47761 -18.5656 60.7121
lradius 113.093
lwrist 41.4692
lhand 31.7127 46.4697
lfingers 7.12502
lthumb 55.2398 64.4335
rfemur -31.9448 -15.2033 9.61093
rtibia 64.7391
rfoot -1.43191 -4.47913
rtoes -33.2222
lfemur -16.9214 -3.78587 -31.2658
ltibia 42.7315
lfoot -20.2071 -9.09726
ltoes 20.9146
437
root -8.16836 16.0027 -4.33593 338.172 -263.399 334.939
lowerback 2.63113 2.84823 6.07223
upperback -8.21869 4.52714 -0.580376
thorax -9.72678 1.81529 -4.50643
lowerneck 7.05455 -11.8402 -13.2729
upperneck 11.8802 -16.3671 2.90117
head 3.81118 -8.46494 2.5478
rclavicle 3.37934e-015 -9.54166e-015
rhumerus -4.87016 -3.17389 -53.272
rradius 85.4687
rwrist -1.82363
rhand -11.9018 60.3392
rfingers 7.12502
rthumb 14.1516 30.8412
lclavicle 3.37934e-015 -9.54166e-015
lhumerus -9.55051 -21.695 60.785
lradius 113.209
lwrist 41.8282
lhand 32.2539 46.7769
lfingers 7.12502
lthumb 55.721 64.3808
rfemur -31.284 -14.185 8.47935
rtibia 60.2891
rfoot -2.30607 -6.58856
rtoes -33.6635
lfemur -16.3373 -5.38638 -29.864
ltibia 42.2661
lfoot -18.5832 -10.9857
ltoes 21.6908
438
root -7.94646 16.1273 -4.14173 353.514 -258.446 349.895
lowerback 2.17767 2.57082 7.04914
upperback -8.7208 4.25745 -0.766739
thorax -9.99631 1.59703 -5.22224
lowerneck 7.37006 -12.5286 -13.129
upperneck 11.9139 -17.309 2.88548
head 3.83719 -8.92272 2.48871
rclavicle -2.75317e-014 -1.51076e-014
rhumerus -4.95704 -5.04043 -50.6498
rradius 85.3633
rwrist -1.08527
rhand -10.8568 61.1471
rfingers 7.12502
rthumb 15.1584 31.7223
lclavicle -2.75317e-014 -1.51076e-014
lhumerus -9.12849 -24.0347 60.2282
lradius 113.238
lwrist 42.4109
lhand 32.556 46.8831
lfingers 7.12502
lthumb 55.9891 64.2813
rfemur -30.0587 -12.4239 7.60778
rtibia 55.1781
rfoot -2.81825 -9.79418
rtoes -34.0722
lfemur -16.1251 -6.57419 -28.026
ltibia 41.7889
lfoot -15.9627 -12.4229
ltoes 21.7198
439
root -7.70521 16.2491 -3.94302 358.505 -253.233 354.736
lowerback 0.515291 2.21893 6.81892
upperback -8.16117 3.63818 -0.345769
thorax -8.49942 1.41697 -4.46764
lowerneck 6.50826 -13.2333 -13.0327
upperneck 11.5091 -18.1231 2.45161
head 3.86523 -9.32283 2.25175
rclavicle 6.85807e-015 -1.43125e-014
rhumerus -3.15622 -7.22217 -47.8455
rradius 85.1889
rwrist -0.66116
rhand -9.97907 61.637
rfingers 7.12502
rthumb 16.0038 32.2781
lclavicle 6.85807e-015 -1.43125e-014
lhumerus -7.74515 -24.7932 59.902
lradius 112.966
lwrist 42.7098
lhand 33.3255 46.7581
lfingers 7.12502
lthumb 56.6693 63.6163
rfemur -28.205 -10.1936 6.426
rtibia 49.8423
rfoot -3.46278 -12.1459
rtoes -35.9676
lfemur -15.8028 -7.25049 -26.4464
ltibia 41.4162
lfoot -13.0842 -13.2338
ltoes 20.8905
440
root -7.44648 16.3852 -3.74837 362.003 -248.176 358.261
lowerback -0.148943 2.02299 7.30236
upperback -8.35708 3.39934 -0.312468
thorax -8.34511 1.28773 -4.66096
lowerneck 6.59573 -13.9079 -12.8579
upperneck 11.614 -19.0117 2.33948
head 3.92725 -9.75533 2.14309
rclavicle 1.97791e-014 6.36111e-015
rhumerus -3.33116 -9.07738 -45.2597
rradius 85.3586
rwrist -0.657178
rhand -9.62097 61.7237
rfingers 7.12502
rthumb 16.3486 32.3928
lclavicle 1.97791e-014 6.36111e-015
lhumerus -7.16682 -26.7328 59.2853
lradius 112.845
lwrist 43.0322
lhand 34.0236 46.3754
lfingers 7.12502
lthumb 57.2834 62.7228
rfemur -25.9571 -7.6024 5.84525
rtibia 44.3796
rfoot -3.55303 -13.1532
rtoes -39.6722
lfemur -15.4885 -7.3413 -24.3994
ltibia 41.2092
lfoot -10.797 -14.0037
ltoes 19.6704
441
root -7.17831 16.4854 -3.54639 364.011 -243.122 360.443
lowerback -0.80909 1.90064 7.56227
upperback -8.4728 3.23887 -0.266809
thorax -8.10539 1.21847 -4.72139
lowerneck 6.89566 -14.5301 -13.0356
upperneck 11.6132 -19.9026 2.61346
head 3.99499 -10.1921 2.2041
rclavicle 6.80837e-014 1.03368e-014
rhumerus -3.92476 -10.7517 -42.3278
rradius 85.9148
rwrist -1.32556
rhand -9.26721 61.553
rfingers 7.12502
rthumb 16.6892 32.2504
lclavicle 6.80837e-014 1.03368e-014
lhumerus -6.39294 -28.7223 58.8563
lradius 112.792
lwrist 43.7208
lhand 33.5695 46.2766
lfingers 7.12502
lthumb 56.8843 62.9586
rfemur -23.7137 -5.50739 5.51048
rtibia 39.3365
rfoot -3.13053 -12.9072
rtoes -41.1127
lfemur -15.4343 -7.12841 -22.301
ltibia 41.3542
lfoot -8.8847 -14.6956
ltoes 18.2198
